<svg width="1440" height="980" viewBox="0 0 1440 980" fill="none" xmlns="http://www.w3.org/2000/svg">
  <rect width="1440" height="980" rx="56" fill="#F8FBFF"/>
  <rect x="36" y="34" width="1368" height="912" rx="42" fill="#FFFFFF" stroke="#D9E7F7"/>
  <rect x="78" y="82" width="250" height="816" rx="28" fill="#F3F8FE"/>
  <rect x="358" y="82" width="1004" height="116" rx="28" fill="#F7FBFF"/>
  <rect x="358" y="226" width="482" height="286" rx="28" fill="#FFFFFF" stroke="#DAE6F5"/>
  <rect x="880" y="226" width="482" height="286" rx="28" fill="#FFFFFF" stroke="#DAE6F5"/>
  <rect x="358" y="540" width="1004" height="320" rx="28" fill="#FFFFFF" stroke="#DAE6F5"/>
  <rect x="112" y="118" width="116" height="116" rx="30" fill="url(#paint0_linear_401_2)"/>
  <circle cx="170" cy="176" r="18" fill="#07111F"/>
  <circle cx="203" cy="155" r="46" stroke="#F8FAFC" stroke-width="12"/>
  <path d="M238 123C250.703 135.703 258.444 153.005 258.444 171.333C258.444 189.661 250.703 206.963 238 219.667" stroke="#22C55E" stroke-width="10" stroke-linecap="round"/>
  <path d="M126 118C141.225 106.53 160.024 100.333 180 100.333" stroke="#A78BFA" stroke-width="10" stroke-linecap="round"/>
  <rect x="110" y="280" width="172" height="14" rx="7" fill="#0F172A"/>
  <rect x="110" y="310" width="122" height="10" rx="5" fill="#64748B"/>
  <rect x="110" y="372" width="188" height="72" rx="22" fill="#FFFFFF" stroke="#DBEAFE"/>
  <rect x="136" y="398" width="84" height="20" rx="10" fill="#67E8F9"/>
  <rect x="228" y="398" width="42" height="20" rx="10" fill="#E2E8F0"/>
  <rect x="110" y="474" width="188" height="72" rx="22" fill="#FFFFFF" stroke="#E9D5FF"/>
  <rect x="136" y="500" width="96" height="20" rx="10" fill="#A78BFA"/>
  <rect x="110" y="576" width="188" height="72" rx="22" fill="#FFFFFF" stroke="#BBF7D0"/>
  <rect x="136" y="602" width="76" height="20" rx="10" fill="#22C55E"/>
  <rect x="390" y="118" width="228" height="18" rx="9" fill="#0F172A"/>
  <rect x="390" y="148" width="326" height="12" rx="6" fill="#64748B"/>
  <rect x="1146" y="116" width="174" height="48" rx="20" fill="url(#paint1_linear_401_2)"/>
  <rect x="394" y="264" width="178" height="16" rx="8" fill="#0F172A"/>
  <rect x="394" y="294" width="142" height="12" rx="6" fill="#64748B"/>
  <rect x="394" y="344" width="410" height="132" rx="24" fill="#F6FAFF" stroke="#D9E7F7"/>
  <path d="M432 430L498 384L562 414L626 340L700 382L756 324" stroke="#38BDF8" stroke-width="12" stroke-linecap="round" stroke-linejoin="round"/>
  <circle cx="756" cy="324" r="14" fill="#22C55E"/>
  <rect x="914" y="264" width="176" height="16" rx="8" fill="#0F172A"/>
  <rect x="914" y="294" width="160" height="12" rx="6" fill="#64748B"/>
  <rect x="914" y="344" width="404" height="132" rx="24" fill="#F6FAFF" stroke="#D9E7F7"/>
  <rect x="964" y="402" width="38" height="28" rx="12" fill="#67E8F9"/>
  <rect x="1018" y="390" width="38" height="40" rx="12" fill="#A78BFA"/>
  <rect x="1072" y="374" width="38" height="56" rx="12" fill="#22C55E"/>
  <rect x="1126" y="352" width="38" height="78" rx="12" fill="#0F172A"/>
  <rect x="394" y="578" width="240" height="16" rx="8" fill="#0F172A"/>
  <rect x="394" y="608" width="190" height="12" rx="6" fill="#64748B"/>
  <rect x="394" y="656" width="932" height="78" rx="24" fill="#F8FBFF" stroke="#D9E7F7"/>
  <rect x="426" y="682" width="132" height="24" rx="12" fill="#67E8F9"/>
  <rect x="580" y="682" width="188" height="24" rx="12" fill="#E2E8F0"/>
  <rect x="790" y="682" width="220" height="24" rx="12" fill="#E2E8F0"/>
  <rect x="1032" y="682" width="262" height="24" rx="12" fill="#E2E8F0"/>
  <rect x="394" y="760" width="446" height="70" rx="22" fill="#F8FBFF" stroke="#D9E7F7"/>
  <rect x="872" y="760" width="454" height="70" rx="22" fill="#F8FBFF" stroke="#D9E7F7"/>
  <rect x="430" y="786" width="180" height="18" rx="9" fill="#A78BFA"/>
  <rect x="430" y="812" width="300" height="10" rx="5" fill="#64748B"/>
  <rect x="908" y="786" width="132" height="18" rx="9" fill="#22C55E"/>
  <rect x="908" y="812" width="252" height="10" rx="5" fill="#64748B"/>
  <defs>
    <linearGradient id="paint0_linear_401_2" x1="112" y1="118" x2="228" y2="234" gradientUnits="userSpaceOnUse">
      <stop stop-color="#67E8F9"/>
      <stop offset="0.56" stop-color="#60A5FA"/>
      <stop offset="1" stop-color="#A78BFA"/>
    </linearGradient>
    <linearGradient id="paint1_linear_401_2" x1="1146" y1="116" x2="1320" y2="164" gradientUnits="userSpaceOnUse">
      <stop stop-color="#67E8F9"/>
      <stop offset="1" stop-color="#22C55E"/>
    </linearGradient>
  </defs>
</svg>
