<svg width="1200" height="980" viewBox="0 0 1200 980" fill="none" xmlns="http://www.w3.org/2000/svg">
  <rect width="1200" height="980" rx="48" fill="#07111F"/>
  <rect x="54" y="52" width="1092" height="876" rx="36" fill="url(#paint0_linear_209_2)" stroke="rgba(255,255,255,0.12)"/>
  <rect x="98" y="100" width="230" height="780" rx="28" fill="#0E1B2D"/>
  <rect x="368" y="100" width="734" height="116" rx="28" fill="#102035"/>
  <rect x="368" y="248" width="356" height="252" rx="28" fill="#0E1B2D"/>
  <rect x="746" y="248" width="356" height="252" rx="28" fill="#0E1B2D"/>
  <rect x="368" y="532" width="734" height="348" rx="28" fill="#0E1B2D"/>
  <rect x="128" y="146" width="118" height="118" rx="32" fill="url(#paint1_linear_209_2)"/>
  <circle cx="187" cy="205" r="26" fill="#081120"/>
  <circle cx="221" cy="184" r="52" stroke="#F8FAFC" stroke-width="14" opacity="0.85"/>
  <path d="M258 149C271.255 162.255 279.333 180.594 279.333 201C279.333 221.406 271.255 239.745 258 253" stroke="#22C55E" stroke-width="10" stroke-linecap="round"/>
  <path d="M143 140C159.224 127.845 179.259 121.333 201 121.333" stroke="#A78BFA" stroke-width="10" stroke-linecap="round"/>
  <rect x="126" y="314" width="172" height="14" rx="7" fill="#E2E8F0" opacity="0.92"/>
  <rect x="126" y="344" width="136" height="10" rx="5" fill="#64748B"/>
  <rect x="126" y="402" width="174" height="66" rx="22" fill="#0B1626" stroke="#164E63"/>
  <rect x="148" y="424" width="66" height="22" rx="11" fill="#67E8F9"/>
  <rect x="228" y="424" width="48" height="22" rx="11" fill="#1E293B"/>
  <rect x="126" y="500" width="174" height="66" rx="22" fill="#0B1626" stroke="#312E81"/>
  <rect x="148" y="522" width="84" height="22" rx="11" fill="#A78BFA"/>
  <rect x="126" y="598" width="174" height="66" rx="22" fill="#0B1626" stroke="#14532D"/>
  <rect x="148" y="620" width="72" height="22" rx="11" fill="#22C55E"/>
  <rect x="398" y="136" width="192" height="18" rx="9" fill="#F8FAFC"/>
  <rect x="398" y="166" width="304" height="12" rx="6" fill="#64748B"/>
  <rect x="820" y="134" width="152" height="48" rx="20" fill="url(#paint2_linear_209_2)"/>
  <rect x="404" y="288" width="176" height="16" rx="8" fill="#F8FAFC"/>
  <rect x="404" y="318" width="132" height="12" rx="6" fill="#64748B"/>
  <rect x="404" y="370" width="286" height="94" rx="22" fill="#081120" stroke="#1E293B"/>
  <path d="M438 428L496 380L550 414L614 352L654 392" stroke="#67E8F9" stroke-width="12" stroke-linecap="round" stroke-linejoin="round"/>
  <circle cx="654" cy="392" r="14" fill="#22C55E"/>
  <rect x="782" y="288" width="176" height="16" rx="8" fill="#F8FAFC"/>
  <rect x="782" y="318" width="148" height="12" rx="6" fill="#64748B"/>
  <rect x="782" y="370" width="284" height="96" rx="24" fill="#081120" stroke="#1E293B"/>
  <rect x="820" y="404" width="34" height="28" rx="12" fill="#67E8F9"/>
  <rect x="870" y="392" width="34" height="40" rx="12" fill="#A78BFA"/>
  <rect x="920" y="382" width="34" height="50" rx="12" fill="#22C55E"/>
  <rect x="970" y="364" width="34" height="68" rx="12" fill="#F8FAFC"/>
  <rect x="404" y="566" width="234" height="16" rx="8" fill="#F8FAFC"/>
  <rect x="404" y="596" width="174" height="12" rx="6" fill="#64748B"/>
  <rect x="404" y="646" width="664" height="78" rx="24" fill="#081120" stroke="#1E293B"/>
  <rect x="430" y="671" width="132" height="28" rx="14" fill="#67E8F9"/>
  <rect x="590" y="671" width="184" height="28" rx="14" fill="#1E293B"/>
  <rect x="804" y="671" width="236" height="28" rx="14" fill="#1E293B"/>
  <rect x="404" y="750" width="316" height="94" rx="24" fill="#081120" stroke="#1E293B"/>
  <rect x="752" y="750" width="316" height="94" rx="24" fill="#081120" stroke="#1E293B"/>
  <rect x="432" y="780" width="162" height="20" rx="10" fill="#A78BFA"/>
  <rect x="432" y="810" width="248" height="12" rx="6" fill="#64748B"/>
  <rect x="780" y="780" width="122" height="20" rx="10" fill="#22C55E"/>
  <rect x="780" y="810" width="210" height="12" rx="6" fill="#64748B"/>
  <defs>
    <linearGradient id="paint0_linear_209_2" x1="600" y1="52" x2="600" y2="928" gradientUnits="userSpaceOnUse">
      <stop stop-color="#0F1F33"/>
      <stop offset="1" stop-color="#081120"/>
    </linearGradient>
    <linearGradient id="paint1_linear_209_2" x1="128" y1="146" x2="246" y2="264" gradientUnits="userSpaceOnUse">
      <stop stop-color="#67E8F9"/>
      <stop offset="0.55" stop-color="#60A5FA"/>
      <stop offset="1" stop-color="#A78BFA"/>
    </linearGradient>
    <linearGradient id="paint2_linear_209_2" x1="820" y1="134" x2="972" y2="182" gradientUnits="userSpaceOnUse">
      <stop stop-color="#67E8F9"/>
      <stop offset="1" stop-color="#22C55E"/>
    </linearGradient>
  </defs>
</svg>
