<svg width="1280" height="900" viewBox="0 0 1280 900" fill="none" xmlns="http://www.w3.org/2000/svg">
  <rect width="1280" height="900" rx="40" fill="#F8FBFF"/>
  <rect x="34" y="32" width="1212" height="836" rx="30" fill="#FFFFFF" stroke="#D9E7F7"/>
  <rect x="72" y="72" width="1136" height="116" rx="28" fill="#F7FBFF"/>
  <rect x="108" y="112" width="204" height="18" rx="9" fill="#0F172A"/>
  <rect x="108" y="142" width="318" height="12" rx="6" fill="#64748B"/>
  <rect x="72" y="224" width="538" height="604" rx="28" fill="#FFFFFF" stroke="#D9E7F7"/>
  <rect x="638" y="224" width="570" height="604" rx="28" fill="#F7FBFF" stroke="#D9E7F7"/>
  <rect x="108" y="264" width="190" height="16" rx="8" fill="#0F172A"/>
  <rect x="108" y="292" width="138" height="12" rx="6" fill="#64748B"/>
  <rect x="108" y="346" width="466" height="90" rx="24" fill="#F8FBFF" stroke="#D9E7F7"/>
  <circle cx="154" cy="391" r="22" fill="#22C55E"/>
  <path d="M144 391L151 398L165 384" stroke="#FFFFFF" stroke-width="6" stroke-linecap="round" stroke-linejoin="round"/>
  <rect x="188" y="378" width="160" height="14" rx="7" fill="#0F172A"/>
  <rect x="188" y="404" width="112" height="10" rx="5" fill="#64748B"/>
  <rect x="108" y="460" width="466" height="90" rx="24" fill="#FFFFFF" stroke="#D9E7F7"/>
  <circle cx="154" cy="505" r="22" fill="#67E8F9"/>
  <rect x="188" y="492" width="180" height="14" rx="7" fill="#0F172A"/>
  <rect x="188" y="518" width="140" height="10" rx="5" fill="#64748B"/>
  <rect x="108" y="574" width="466" height="90" rx="24" fill="#FFFFFF" stroke="#D9E7F7"/>
  <circle cx="154" cy="619" r="22" fill="#A78BFA"/>
  <rect x="188" y="606" width="146" height="14" rx="7" fill="#0F172A"/>
  <rect x="188" y="632" width="116" height="10" rx="5" fill="#64748B"/>
  <rect x="672" y="264" width="196" height="16" rx="8" fill="#0F172A"/>
  <rect x="672" y="292" width="152" height="12" rx="6" fill="#64748B"/>
  <rect x="672" y="344" width="502" height="216" rx="28" fill="#FFFFFF" stroke="#D9E7F7"/>
  <rect x="710" y="390" width="74" height="126" rx="22" fill="#67E8F9"/>
  <rect x="806" y="364" width="74" height="152" rx="22" fill="#A78BFA"/>
  <rect x="902" y="334" width="74" height="182" rx="22" fill="#22C55E"/>
  <rect x="998" y="410" width="74" height="106" rx="22" fill="#0F172A"/>
  <rect x="672" y="590" width="502" height="198" rx="28" fill="#FFFFFF" stroke="#D9E7F7"/>
  <rect x="706" y="628" width="436" height="38" rx="18" fill="#F8FBFF" stroke="#D9E7F7"/>
  <rect x="728" y="639" width="120" height="16" rx="8" fill="#22C55E"/>
  <rect x="864" y="639" width="88" height="16" rx="8" fill="#67E8F9"/>
  <rect x="966" y="639" width="144" height="16" rx="8" fill="#E2E8F0"/>
  <rect x="706" y="686" width="436" height="72" rx="22" fill="#F8FBFF" stroke="#D9E7F7"/>
  <rect x="734" y="710" width="174" height="16" rx="8" fill="#0F172A"/>
  <rect x="734" y="736" width="144" height="10" rx="5" fill="#64748B"/>
</svg>
