<svg width="1280" height="900" viewBox="0 0 1280 900" fill="none" xmlns="http://www.w3.org/2000/svg">
  <rect width="1280" height="900" rx="40" fill="#F8FBFF"/>
  <rect x="34" y="32" width="1212" height="836" rx="30" fill="#FFFFFF" stroke="#D9E7F7"/>
  <rect x="74" y="74" width="1132" height="128" rx="28" fill="#F7FBFF"/>
  <rect x="110" y="116" width="214" height="18" rx="9" fill="#0F172A"/>
  <rect x="110" y="146" width="336" height="12" rx="6" fill="#64748B"/>
  <rect x="74" y="232" width="362" height="594" rx="28" fill="#FFFFFF" stroke="#D9E7F7"/>
  <rect x="460" y="232" width="746" height="594" rx="28" fill="#F7FBFF" stroke="#D9E7F7"/>
  <rect x="106" y="272" width="170" height="16" rx="8" fill="#0F172A"/>
  <rect x="106" y="300" width="122" height="12" rx="6" fill="#64748B"/>
  <rect x="106" y="350" width="296" height="86" rx="24" fill="#F8FBFF" stroke="#D9E7F7"/>
  <rect x="132" y="378" width="92" height="18" rx="9" fill="#67E8F9"/>
  <rect x="106" y="456" width="296" height="86" rx="24" fill="#F8FBFF" stroke="#D9E7F7"/>
  <rect x="132" y="484" width="84" height="18" rx="9" fill="#A78BFA"/>
  <rect x="106" y="562" width="296" height="86" rx="24" fill="#F8FBFF" stroke="#D9E7F7"/>
  <rect x="132" y="590" width="98" height="18" rx="9" fill="#22C55E"/>
  <rect x="494" y="272" width="188" height="16" rx="8" fill="#0F172A"/>
  <rect x="494" y="300" width="156" height="12" rx="6" fill="#64748B"/>
  <rect x="494" y="346" width="680" height="170" rx="28" fill="#FFFFFF" stroke="#D9E7F7"/>
  <path d="M548 458L618 400L694 424L778 352L864 390L940 328L1046 378L1120 306" stroke="#38BDF8" stroke-width="12" stroke-linecap="round" stroke-linejoin="round"/>
  <circle cx="1120" cy="306" r="14" fill="#22C55E"/>
  <rect x="494" y="544" width="326" height="238" rx="28" fill="#FFFFFF" stroke="#D9E7F7"/>
  <rect x="852" y="544" width="322" height="238" rx="28" fill="#FFFFFF" stroke="#D9E7F7"/>
  <rect x="526" y="580" width="156" height="16" rx="8" fill="#0F172A"/>
  <rect x="526" y="608" width="118" height="12" rx="6" fill="#64748B"/>
  <rect x="526" y="652" width="258" height="38" rx="18" fill="#F8FBFF" stroke="#D9E7F7"/>
  <rect x="546" y="663" width="88" height="16" rx="8" fill="#67E8F9"/>
  <rect x="526" y="706" width="258" height="38" rx="18" fill="#F8FBFF" stroke="#D9E7F7"/>
  <rect x="546" y="717" width="96" height="16" rx="8" fill="#22C55E"/>
  <rect x="884" y="580" width="154" height="16" rx="8" fill="#0F172A"/>
  <rect x="884" y="608" width="132" height="12" rx="6" fill="#64748B"/>
  <rect x="884" y="652" width="256" height="92" rx="24" fill="#F8FBFF" stroke="#D9E7F7"/>
  <rect x="920" y="690" width="34" height="18" rx="9" fill="#67E8F9"/>
  <rect x="968" y="674" width="34" height="34" rx="12" fill="#A78BFA"/>
  <rect x="1016" y="658" width="34" height="50" rx="12" fill="#22C55E"/>
  <rect x="1064" y="638" width="34" height="70" rx="12" fill="#0F172A"/>
</svg>
